# xmcd CD database file generated by Grip 3.0.0
# 
# Track frame offsets:
#       150
#       14601
#       31429
#       45143
#       66031
#       84943
#       100293
#       131834
#       160132
# 
# Disc length: 2558 seconds
# 
# Revision: 1
# Processed by: cddbd v1.4PL0 Copyright (c) Steve Scherf et al.
# Submitted via: Grip 3.0.0
# 
DISCID=6909fc09
DTITLE=Miles Davis -  The Serpent's Tooth 
DYEAR=2001
DGENRE=Jazz
TTITLE0=Donna (Parker)
TTITLE1=Yesterdays (O. Harback - J. Kern)
TTITLE2=Change It (Davis)
TTITLE3=How Deep Is the Ocean (Berlin)
TTITLE4=Dear Old Stockholm (Davis)
TTITLE5=Woody 'N You (Davis)
TTITLE6=The Serpent's Tooth (Take 1) (Davis)
TTITLE7=The Serpent's Tooth (Take 2) (Davis)
TTITLE8='Round Midnight (Monk-Williams-Hanighen)
EXTD=YEAR: 2001
EXTT0=
EXTT1=
EXTT2=
EXTT3=
EXTT4=
EXTT5=
EXTT6=
EXTT7=
EXTT8=
PLAYORDER=
